<?xml version="1.0" encoding="UTF-8" standalone="no"?>
<svg width="385px" height="322px" viewBox="0 0 385 322" version="1.1" xmlns="http://www.w3.org/2000/svg" xmlns:xlink="http://www.w3.org/1999/xlink" xmlns:sketch="http://www.bohemiancoding.com/sketch/ns">
    <!-- Generator: Sketch 3.3.2 (12043) - http://www.bohemiancoding.com/sketch -->
    <title>Slice 1</title>
    <desc>Created with Sketch.</desc>
    <defs></defs>
    <g id="Page-1" stroke="none" stroke-width="1" fill="none" fill-rule="evenodd" sketch:type="MSPage">
        <g id="excavator3" sketch:type="MSLayerGroup" transform="translate(0.000068, 0.960007)">
            <g id="Group" sketch:type="MSShapeGroup">
                <path d="M321.725563,136.937043 C321.725563,136.937043 339.217502,99.9163801 374.221564,125.494424 L383.640375,125.494424 C383.639413,125.495385 359.416183,60.8901711 300.191293,114.057572 C300.191293,114.057572 320.384207,115.398928 321.725563,136.937043 Z" id="Shape" fill="#DE4242"></path>
                <path d="M321.724602,166.88759 C320.383246,188.425225 300.190332,189.768503 300.190332,189.768503 C359.414741,242.935904 383.639413,178.328768 383.639413,178.328768 L374.220603,178.328768 C339.21654,203.909695 321.724602,166.88759 321.724602,166.88759 L321.724602,166.88759 Z" id="Shape" fill="#DE4242"></path>
                <path d="M273.265165,115.001952 L193.83871,38.6710451 C193.83871,38.6710451 185.099949,81.7429497 158.850987,84.4400802 L244.996238,147.71355 C244.996238,147.71355 246.335672,115.950657 273.265165,115.001952 Z" id="Shape" fill="#000000"></path>
                <path d="M144.039358,93.0606128 C95.5804016,105.71819 85.4839446,64.2481274 85.4839446,64.2481274 L49.8161726,147.713069 C90.1995975,136.275256 114.762613,176.651472 114.762613,176.651472 L144.039358,93.0606128 Z" id="Shape" fill="#000000"></path>
                <path d="M316.33755,147.71355 C316.33755,131.732619 303.376233,118.772744 287.398186,118.772744 C271.418217,118.772744 258.457861,131.732138 258.457861,147.71355 C258.457861,163.690635 271.418217,176.651472 287.398186,176.651472 C303.377194,176.651472 316.33755,163.691596 316.33755,147.71355 L316.33755,147.71355 Z M274.604118,147.71355 C274.604118,140.654008 280.333838,134.92621 287.399147,134.92621 C294.466379,134.92621 300.190332,140.654008 300.190332,147.71355 C300.190332,154.772611 294.466379,160.497044 287.399147,160.497044 C280.333838,160.497044 274.604118,154.772611 274.604118,147.71355 L274.604118,147.71355 Z" id="Shape" fill="#000000"></path>
                <path d="M98.3241503,38.6710451 C98.3241503,59.919358 115.549836,77.1532142 136.79863,77.1532142 C158.055113,77.1532142 175.288008,59.919358 175.288008,38.6710451 C175.288008,17.4208098 158.055593,0.19031783 136.79863,0.19031783 C115.549836,0.19031783 98.3241503,17.4212904 98.3241503,38.6710451 L98.3241503,38.6710451 Z M136.79863,21.6664354 C146.191968,21.6664354 153.802759,29.2849158 153.802759,38.6715257 C153.802759,48.0557326 146.191968,55.6746936 136.79863,55.6746936 C127.411539,55.6746936 119.793059,48.0557326 119.793059,38.6715257 C119.793059,29.2849158 127.411539,21.6664354 136.79863,21.6664354 L136.79863,21.6664354 Z" id="Shape" fill="#000000"></path>
                <path d="M28.9955942,205.369279 C28.9955942,226.617111 46.2289698,243.850967 67.4835305,243.850967 C88.732324,243.850967 105.958491,226.617111 105.958491,205.369279 C105.958491,184.118563 88.732324,166.88759 67.4835305,166.88759 C46.2294504,166.88759 28.9955942,184.119044 28.9955942,205.369279 L28.9955942,205.369279 Z M67.4835305,188.363708 C76.870621,188.363708 84.4886208,195.98363 84.4886208,205.370721 C84.4886208,214.753486 76.870621,222.372927 67.4835305,222.372927 C58.0820219,222.372927 50.4789208,214.753486 50.4789208,205.370721 C50.4794014,195.982669 58.0825025,188.363708 67.4835305,188.363708 L67.4835305,188.363708 Z" id="Shape" fill="#000000"></path>
                <path d="M127.205362,320.010299 L105.958491,243.850967 C105.958491,243.850967 73.4698913,282.110138 28.9955942,243.850967 L0,320.010299 L127.205362,320.010299 Z" id="Shape" fill="#000000"></path>
            </g>
        </g>
    </g>
</svg>